<svg xmlns="http://www.w3.org/2000/svg" viewBox="0 0 900 520">
  <rect width="900" height="520" fill="#f7f9fc"/>
  <rect x="42" y="42" width="816" height="436" rx="18" fill="#fff" stroke="#cfd8e3" stroke-width="3"/>
  <text x="450" y="92" text-anchor="middle" font-family="Arial, sans-serif" font-size="42" font-weight="700" fill="#17324d">BiWM</text>
  <text x="450" y="128" text-anchor="middle" font-family="Arial, sans-serif" font-size="22" fill="#52616f">Bidirectional Autoregressive Interactive Video World Models</text>
  <g font-family="Arial, sans-serif" font-size="22" font-weight="700" text-anchor="middle">
    <rect x="80" y="190" width="170" height="96" rx="12" fill="#e8f1ff" stroke="#2b6cb0" stroke-width="3"/>
    <text x="165" y="230" fill="#17324d">Video</text>
    <text x="165" y="260" fill="#17324d">Backbone</text>
    <rect x="365" y="190" width="170" height="96" rx="12" fill="#edf7ed" stroke="#3f8f46" stroke-width="3"/>
    <text x="450" y="230" fill="#17324d">Camera</text>
    <text x="450" y="260" fill="#17324d">Control</text>
    <rect x="650" y="190" width="170" height="96" rx="12" fill="#fff3df" stroke="#d88419" stroke-width="3"/>
    <text x="735" y="230" fill="#17324d">Few-Step</text>
    <text x="735" y="260" fill="#17324d">DMD</text>
  </g>
  <g stroke="#52616f" stroke-width="5" fill="none" stroke-linecap="round" stroke-linejoin="round">
    <path d="M260 238 H345"/>
    <path d="M332 224 L350 238 L332 252"/>
    <path d="M545 238 H630"/>
    <path d="M617 224 L635 238 L617 252"/>
  </g>
  <g font-family="Arial, sans-serif" text-anchor="middle">
    <rect x="96" y="345" width="708" height="64" rx="32" fill="#17324d"/>
    <text x="450" y="386" font-size="24" font-weight="700" fill="#fff">Self-correcting long-horizon rollout with bidirectional attention</text>
  </g>
</svg>
